<?xml version="1.0" standalone="no"?>
<!DOCTYPE svg PUBLIC "-//W3C//DTD SVG 20010904//EN"
 "http://www.w3.org/TR/2001/REC-SVG-20010904/DTD/svg10.dtd">
<svg version="1.0" xmlns="http://www.w3.org/2000/svg"
 width="842.000000pt" height="595.000000pt" viewBox="0 0 842.000000 595.000000"
 preserveAspectRatio="xMidYMid meet">

<g transform="translate(0.000000,595.000000) scale(0.100000,-0.100000)"
fill="#000000" stroke="none">
<path d="M2740 5454 c-216 -34 -298 -55 -461 -117 -61 -24 -168 -73 -214 -100
-11 -6 -33 -18 -50 -27 -69 -36 -206 -139 -303 -228 -138 -125 -295 -338 -361
-487 -12 -27 -34 -73 -48 -102 -14 -28 -29 -71 -34 -95 -42 -205 -44 -226 -44
-443 0 -191 3 -236 24 -340 22 -112 55 -227 71 -250 4 -5 21 -51 38 -101 16
-50 53 -128 80 -173 28 -45 59 -98 69 -119 14 -31 61 -94 126 -172 6 -8 34
-41 60 -74 27 -33 91 -102 144 -153 l96 -92 6 -68 c4 -37 12 -78 19 -90 7 -12
12 -29 12 -37 0 -27 62 -118 123 -182 77 -81 202 -145 312 -160 70 -9 81 -18
89 -64 9 -56 60 -162 115 -238 26 -37 137 -122 158 -122 7 0 21 -4 31 -9 55
-28 97 -41 131 -41 66 0 99 -17 111 -58 5 -21 10 -49 10 -64 0 -15 5 -30 10
-33 6 -3 10 -15 10 -25 0 -26 65 -117 120 -166 56 -52 167 -124 190 -124 10 0
23 -6 29 -14 12 -14 32 -20 142 -38 65 -10 67 -12 88 -53 11 -23 21 -48 21
-55 0 -31 75 -143 124 -185 112 -97 303 -146 444 -114 125 28 203 64 263 122
19 18 52 47 74 65 178 149 405 373 430 425 22 48 56 72 82 59 10 -5 60 -15
111 -22 132 -18 239 5 327 70 62 47 83 70 130 143 33 53 37 67 42 148 7 103
-3 95 133 102 115 6 213 47 291 122 62 59 89 96 89 120 0 9 7 29 15 46 10 18
16 62 18 117 l2 87 105 6 c76 4 119 12 154 27 27 12 53 22 58 22 14 0 98 58
136 94 18 17 49 56 68 87 35 59 37 70 32 287 0 14 17 43 41 70 44 50 168 213
188 247 12 21 58 106 86 160 27 52 45 98 67 165 79 244 90 310 90 535 0 142
-4 208 -16 260 -26 110 -101 339 -125 381 -12 22 -38 68 -57 104 -76 142 -154
243 -283 371 -97 96 -301 259 -324 259 -3 0 -21 11 -39 25 -18 14 -40 25 -49
25 -9 0 -19 4 -22 10 -3 5 -20 16 -38 24 -18 8 -58 26 -89 40 -31 14 -64 26
-72 26 -8 0 -17 4 -20 9 -4 5 -32 17 -64 26 -31 9 -70 21 -87 27 -33 11 -56
16 -229 47 -154 28 -495 32 -591 7 -32 -9 -69 -16 -82 -16 -40 0 -259 -58
-318 -85 -16 -7 -49 -19 -73 -26 -23 -7 -47 -18 -53 -26 -6 -7 -18 -13 -25
-13 -18 0 -189 -92 -204 -110 -13 -15 -108 -70 -122 -70 -13 0 -131 73 -243
150 -39 27 -176 94 -245 120 -19 7 -42 19 -50 25 -8 7 -28 15 -45 18 -16 2
-75 18 -130 34 -209 63 -293 75 -545 78 -129 2 -224 -2 -280 -11z m490 -115
c25 -5 72 -14 105 -19 88 -13 142 -26 215 -49 36 -11 72 -21 81 -21 9 0 22 -7
29 -15 7 -8 19 -15 27 -15 8 0 48 -16 89 -35 41 -19 79 -35 85 -35 6 0 34 -15
62 -34 29 -18 67 -42 85 -52 17 -10 32 -22 32 -26 0 -4 17 -15 38 -24 44 -21
82 -53 82 -70 0 -7 -37 -45 -82 -85 -46 -39 -119 -104 -163 -145 -230 -209
-356 -322 -409 -366 -33 -28 -146 -129 -252 -225 -222 -201 -274 -267 -288
-365 -12 -83 17 -151 99 -233 39 -38 84 -78 100 -87 17 -10 37 -22 45 -27 8
-5 33 -17 55 -26 22 -10 48 -22 57 -26 10 -5 28 -9 42 -9 13 0 40 -7 61 -16
28 -11 73 -15 174 -15 122 0 147 3 240 30 109 32 259 101 287 133 10 10 21 18
25 18 15 0 99 68 233 190 72 65 153 136 180 157 61 48 228 192 281 242 22 21
47 40 56 44 18 6 197 -152 674 -598 18 -16 70 -66 116 -110 46 -44 142 -132
213 -195 285 -254 488 -440 617 -565 133 -128 137 -132 144 -183 8 -57 -4
-105 -40 -162 -25 -40 -124 -120 -147 -120 -9 0 -31 -6 -49 -14 -50 -20 -129
-29 -203 -21 l-64 7 -245 222 c-454 411 -812 735 -887 805 -81 77 -117 92
-155 67 -41 -27 -33 -62 27 -115 101 -90 283 -257 333 -306 28 -27 84 -79 124
-115 130 -115 184 -164 230 -211 58 -59 383 -354 434 -394 70 -55 88 -110 72
-227 -9 -63 -17 -80 -62 -128 -112 -122 -377 -146 -456 -42 -18 25 -171 168
-257 241 -82 70 -183 164 -216 202 -23 25 -105 102 -314 290 -69 62 -182 166
-251 231 -148 139 -158 147 -184 148 -34 0 -65 -28 -65 -59 0 -22 22 -48 123
-139 141 -128 235 -216 327 -306 36 -35 149 -140 251 -232 102 -93 267 -245
367 -338 172 -160 181 -171 191 -218 18 -80 13 -124 -17 -181 -39 -73 -75
-111 -125 -132 -23 -9 -49 -20 -57 -25 -26 -13 -143 -10 -204 4 -63 15 -72 24
-94 91 -15 46 -20 58 -58 138 -33 71 -120 149 -214 194 -75 36 -110 44 -200
48 l-65 3 -6 43 c-25 175 -39 209 -119 289 -53 54 -87 75 -180 110 -19 7 -82
16 -140 19 l-105 6 -7 75 c-9 115 -48 213 -105 274 -85 88 -91 92 -193 131
-34 13 -69 16 -145 14 -111 -4 -129 2 -121 36 3 13 0 50 -8 82 -37 158 -149
281 -315 344 -53 20 -244 17 -310 -6 -57 -19 -136 -68 -186 -115 -87 -82 -154
-140 -185 -161 -19 -13 -46 -34 -60 -47 -223 -203 -316 -282 -328 -282 -29 0
-219 204 -296 318 -16 24 -37 47 -46 52 -9 5 -25 28 -36 52 -10 24 -42 83 -71
132 -29 50 -53 96 -53 103 0 7 -7 29 -16 50 -91 208 -103 257 -133 519 -18
154 -14 236 20 439 14 78 35 146 69 220 15 33 33 71 39 85 23 53 128 213 178
272 99 117 300 293 403 352 36 20 72 41 80 46 8 5 51 26 95 45 44 20 92 42
107 50 14 8 35 15 46 15 12 0 23 4 26 9 3 5 23 11 43 14 21 2 52 9 68 15 46
17 102 29 200 45 105 17 437 21 505 6z m2435 -68 c137 -17 201 -30 260 -50 33
-11 67 -21 75 -21 21 0 128 -45 245 -102 105 -52 216 -124 326 -211 74 -58
238 -226 239 -243 0 -6 7 -18 16 -25 40 -33 214 -338 214 -375 0 -8 4 -22 9
-32 5 -9 14 -37 20 -62 6 -25 18 -67 25 -95 15 -53 31 -156 41 -265 10 -112
-23 -348 -65 -465 -4 -11 -13 -40 -20 -65 -6 -25 -18 -58 -26 -73 -8 -16 -14
-35 -14 -42 0 -8 -17 -41 -37 -75 -21 -34 -49 -81 -63 -106 -60 -105 -177
-257 -208 -269 -8 -3 -34 11 -61 32 -54 45 -358 323 -452 415 -76 74 -472 435
-573 523 -38 33 -126 113 -195 178 -306 290 -450 419 -484 436 -40 21 -69 3
-237 -149 -221 -200 -355 -318 -435 -380 -32 -25 -90 -74 -131 -110 -79 -71
-222 -150 -314 -174 -88 -23 -223 -39 -266 -32 -21 3 -63 9 -92 12 -29 4 -55
10 -58 15 -3 5 -14 9 -24 9 -31 0 -138 61 -192 109 -53 47 -87 107 -88 152 0
59 75 172 151 227 41 30 219 186 379 332 58 53 139 125 180 160 65 56 308 274
450 404 47 42 214 166 225 166 4 0 21 11 39 25 18 14 36 25 39 25 4 0 52 23
108 50 56 28 111 50 123 50 12 0 30 6 41 13 52 35 220 70 485 101 48 6 259 -3
345 -13z m-2589 -2295 c100 -50 178 -155 191 -256 10 -76 -21 -133 -127 -229
-170 -155 -226 -205 -320 -286 -51 -44 -105 -91 -119 -105 -14 -14 -59 -53
-100 -87 -62 -52 -82 -63 -111 -62 -51 1 -148 23 -162 37 -6 6 -20 12 -29 12
-10 0 -46 26 -81 58 -71 65 -82 77 -99 112 -6 14 -18 38 -26 54 -9 15 -18 56
-20 90 l-5 62 103 93 c57 52 136 122 174 156 39 34 113 101 165 148 236 213
286 239 435 233 61 -3 92 -10 131 -30z m623 -497 c88 -63 122 -138 123 -267
l0 -85 -39 -34 c-21 -18 -75 -66 -119 -107 -45 -40 -120 -105 -167 -145 -47
-39 -89 -75 -92 -81 -3 -5 -38 -34 -78 -64 -40 -30 -114 -91 -166 -136 l-94
-82 -66 5 c-94 8 -129 18 -191 54 -57 33 -103 75 -126 115 -41 73 -54 111 -56
168 -3 57 -1 64 22 79 13 9 33 26 44 38 10 12 38 35 60 50 23 15 64 47 91 71
137 122 179 159 198 178 12 12 51 45 87 75 36 29 76 65 90 79 86 86 151 120
250 130 113 12 168 2 229 -41z m468 -465 c80 -21 136 -67 175 -144 30 -59 33
-74 33 -152 l0 -86 -70 -64 c-38 -34 -124 -117 -191 -183 -66 -66 -158 -154
-203 -195 -46 -41 -120 -110 -164 -153 -89 -84 -110 -95 -158 -78 -18 6 -42
11 -55 11 -12 0 -35 6 -51 14 -15 8 -55 27 -88 43 -68 32 -165 122 -187 173
-21 49 -48 143 -48 168 0 13 24 42 67 79 36 32 75 66 84 75 44 42 167 146 199
168 33 23 129 106 281 242 36 32 76 66 88 74 48 34 174 38 288 8z m491 -452
c9 -5 39 -19 65 -32 27 -13 66 -40 87 -59 51 -47 110 -165 117 -236 5 -51 3
-59 -26 -95 -17 -21 -31 -42 -31 -47 0 -24 -321 -334 -435 -418 -21 -17 -48
-38 -58 -49 -11 -10 -44 -30 -76 -44 -68 -32 -204 -42 -279 -21 -123 33 -217
128 -248 250 l-16 63 68 64 c38 36 139 133 224 216 86 83 176 169 201 191 25
22 83 75 129 118 47 44 98 85 115 92 34 15 137 19 163 7z"/>
</g>
</svg>
